<svg width="1080" height="1080" viewBox="0 0 1080 1080" fill="none" xmlns="http://www.w3.org/2000/svg">
<g clip-path="url(#clip0_0_1)">
<rect width="1000" height="1000" transform="translate(40 40)" fill="#E3EAFF"/>
<path d="M625 293.6V785H505.3V582.7H319.1V785H199.4V293.6H319.1V486.1H505.3V293.6H625Z" fill="#192A3F"/>
<path d="M802.9 533C831.367 539.067 854.233 553.3 871.5 575.7C888.767 597.633 897.4 622.833 897.4 651.3C897.4 692.367 882.933 725.033 854 749.3C825.533 773.1 785.633 785 734.3 785H505.4V293.6H726.6C776.533 293.6 815.5 305.033 843.5 327.9C871.967 350.767 886.2 381.8 886.2 421C886.2 449.933 878.5 473.967 863.1 493.1C848.167 512.233 828.1 525.533 802.9 533ZM625.1 492.4H703.5C723.1 492.4 738.033 488.2 748.3 479.8C759.033 470.933 764.4 458.1 764.4 441.3C764.4 424.5 759.033 411.667 748.3 402.8C738.033 393.933 723.1 389.5 703.5 389.5H625.1V492.4ZM713.3 688.4C733.367 688.4 748.767 683.967 759.5 675.1C770.7 665.767 776.3 652.467 776.3 635.2C776.3 617.933 770.467 604.4 758.8 594.6C747.6 584.8 731.967 579.9 711.9 579.9H625.1V688.4H713.3Z" fill="#14213D"/>
</g>
<rect x="40" y="4" width="111.141" height="30" rx="3" fill="#404040"/>
<rect x="40.5" y="4.5" width="110.141" height="29" rx="2.5" stroke="black" stroke-opacity="0.14902"/>
<path d="M49.4375 22H46.9688V14H49.5469C50.3229 14 50.987 14.1602 51.5391 14.4805C52.0911 14.7982 52.5143 15.2552 52.8086 15.8516C53.1029 16.4453 53.25 17.1562 53.25 17.9844C53.25 18.8177 53.1016 19.5352 52.8047 20.1367C52.5078 20.7357 52.0755 21.1966 51.5078 21.5195C50.9401 21.8398 50.25 22 49.4375 22ZM47.9375 21.1406H49.375C50.0365 21.1406 50.5846 21.013 51.0195 20.7578C51.4544 20.5026 51.7786 20.1393 51.9922 19.668C52.2057 19.1966 52.3125 18.6354 52.3125 17.9844C52.3125 17.3385 52.207 16.7826 51.9961 16.3164C51.7852 15.8477 51.4701 15.4883 51.0508 15.2383C50.6315 14.9857 50.1094 14.8594 49.4844 14.8594H47.9375V21.1406ZM57.2656 22.125C56.6875 22.125 56.1888 21.9974 55.7695 21.7422C55.3529 21.4844 55.0313 21.125 54.8047 20.6641C54.5807 20.2005 54.4688 19.6615 54.4688 19.0469C54.4688 18.4323 54.5807 17.8906 54.8047 17.4219C55.0313 16.9505 55.3464 16.5833 55.75 16.3203C56.1563 16.0547 56.6302 15.9219 57.1719 15.9219C57.4844 15.9219 57.793 15.974 58.0977 16.0781C58.4023 16.1823 58.6797 16.3516 58.9297 16.5859C59.1797 16.8177 59.3789 17.125 59.5273 17.5078C59.6758 17.8906 59.75 18.362 59.75 18.9219V19.3125H55.125V18.5156H58.8125C58.8125 18.1771 58.7448 17.875 58.6094 17.6094C58.4766 17.3437 58.2865 17.1341 58.0391 16.9805C57.7943 16.8268 57.5052 16.75 57.1719 16.75C56.8047 16.75 56.487 16.8411 56.2188 17.0234C55.9531 17.2031 55.7487 17.4375 55.6055 17.7266C55.4622 18.0156 55.3906 18.3255 55.3906 18.6562V19.1875C55.3906 19.6406 55.4688 20.0247 55.625 20.3398C55.7839 20.6523 56.0039 20.8906 56.2852 21.0547C56.5664 21.2161 56.8932 21.2969 57.2656 21.2969C57.5078 21.2969 57.7266 21.263 57.9219 21.1953C58.1198 21.125 58.2904 21.0208 58.4336 20.8828C58.5768 20.7422 58.6875 20.5677 58.7656 20.3594L59.6563 20.6094C59.5625 20.9115 59.4049 21.1771 59.1836 21.4062C58.9622 21.6328 58.6888 21.8099 58.3633 21.9375C58.0378 22.0625 57.6719 22.125 57.2656 22.125ZM65.4023 17.3437L64.5742 17.5781C64.5221 17.4401 64.4453 17.306 64.3438 17.1758C64.2448 17.043 64.1094 16.9336 63.9375 16.8477C63.7656 16.7617 63.5456 16.7187 63.2773 16.7187C62.9102 16.7187 62.6042 16.8034 62.3594 16.9727C62.1172 17.1393 61.9961 17.3516 61.9961 17.6094C61.9961 17.8385 62.0794 18.0195 62.2461 18.1523C62.4128 18.2852 62.6732 18.3958 63.0273 18.4844L63.918 18.7031C64.4544 18.8333 64.8542 19.0326 65.1172 19.3008C65.3802 19.5664 65.5117 19.9089 65.5117 20.3281C65.5117 20.6719 65.4128 20.9792 65.2148 21.25C65.0195 21.5208 64.7461 21.7344 64.3945 21.8906C64.043 22.0469 63.6341 22.125 63.168 22.125C62.556 22.125 62.0495 21.9922 61.6484 21.7266C61.2474 21.4609 60.9935 21.0729 60.8867 20.5625L61.7617 20.3437C61.8451 20.6667 62.0026 20.9089 62.2344 21.0703C62.4688 21.2318 62.7747 21.3125 63.1523 21.3125C63.582 21.3125 63.9232 21.2214 64.1758 21.0391C64.431 20.8542 64.5586 20.6328 64.5586 20.375C64.5586 20.1667 64.4857 19.9922 64.3398 19.8516C64.194 19.7083 63.9701 19.6016 63.668 19.5312L62.668 19.2969C62.1185 19.1667 61.7148 18.9648 61.457 18.6914C61.2018 18.4154 61.0742 18.0703 61.0742 17.6562C61.0742 17.3177 61.1693 17.0182 61.3594 16.7578C61.5521 16.4974 61.8138 16.293 62.1445 16.1445C62.4779 15.9961 62.8555 15.9219 63.2773 15.9219C63.8711 15.9219 64.3372 16.0521 64.6758 16.3125C65.0169 16.5729 65.2591 16.9167 65.4023 17.3437ZM66.8994 22V16H67.8213V22H66.8994ZM67.3682 15C67.1885 15 67.0335 14.9388 66.9033 14.8164C66.7757 14.694 66.7119 14.5469 66.7119 14.375C66.7119 14.2031 66.7757 14.056 66.9033 13.9336C67.0335 13.8112 67.1885 13.75 67.3682 13.75C67.5479 13.75 67.7015 13.8112 67.8291 13.9336C67.9593 14.056 68.0244 14.2031 68.0244 14.375C68.0244 14.5469 67.9593 14.694 67.8291 14.8164C67.7015 14.9388 67.5479 15 67.3682 15ZM71.9316 24.375C71.4863 24.375 71.1035 24.3177 70.7832 24.2031C70.4629 24.0911 70.196 23.9427 69.9824 23.7578C69.7715 23.5755 69.6035 23.3802 69.4785 23.1719L70.2129 22.6563C70.2962 22.7656 70.4017 22.8906 70.5293 23.0312C70.6569 23.1745 70.8314 23.2982 71.0527 23.4023C71.2767 23.5091 71.5697 23.5625 71.9316 23.5625C72.416 23.5625 72.8158 23.4453 73.1309 23.2109C73.446 22.9766 73.6035 22.6094 73.6035 22.1094V20.8906H73.5254C73.4577 21 73.3613 21.1354 73.2363 21.2969C73.1139 21.4557 72.9368 21.5977 72.7051 21.7227C72.4759 21.8451 72.166 21.9062 71.7754 21.9062C71.291 21.9062 70.8561 21.7917 70.4707 21.5625C70.0879 21.3333 69.7845 21 69.5605 20.5625C69.3392 20.125 69.2285 19.5937 69.2285 18.9687C69.2285 18.3542 69.3366 17.819 69.5527 17.3633C69.7689 16.9049 70.0697 16.5508 70.4551 16.3008C70.8405 16.0482 71.2858 15.9219 71.791 15.9219C72.1816 15.9219 72.4915 15.987 72.7207 16.1172C72.9525 16.2448 73.1296 16.3906 73.252 16.5547C73.377 16.7161 73.4733 16.849 73.541 16.9531H73.6348V16H74.5254V22.1719C74.5254 22.6875 74.4082 23.1068 74.1738 23.4297C73.9421 23.7552 73.6296 23.9935 73.2363 24.1445C72.8457 24.2982 72.4108 24.375 71.9316 24.375ZM71.9004 21.0781C72.2702 21.0781 72.5827 20.9935 72.8379 20.8242C73.0931 20.6549 73.2871 20.4115 73.4199 20.0938C73.5527 19.776 73.6191 19.3958 73.6191 18.9531C73.6191 18.5208 73.554 18.1393 73.4238 17.8086C73.2936 17.4779 73.1009 17.2187 72.8457 17.0312C72.5905 16.8437 72.2754 16.75 71.9004 16.75C71.5098 16.75 71.1842 16.849 70.9238 17.0469C70.666 17.2448 70.472 17.5104 70.3418 17.8438C70.2142 18.1771 70.1504 18.5469 70.1504 18.9531C70.1504 19.3698 70.2155 19.7383 70.3457 20.0586C70.4785 20.3763 70.6738 20.6263 70.9316 20.8086C71.1921 20.9883 71.515 21.0781 71.9004 21.0781ZM77.1348 18.3906V22H76.2129V16H77.1035V16.9375H77.1816C77.3223 16.6328 77.5358 16.388 77.8223 16.2031C78.1087 16.0156 78.4785 15.9219 78.9316 15.9219C79.3379 15.9219 79.6934 16.0052 79.998 16.1719C80.3027 16.3359 80.5397 16.5859 80.709 16.9219C80.8783 17.2552 80.9629 17.6771 80.9629 18.1875V22H80.041V18.25C80.041 17.7786 79.9186 17.4115 79.6738 17.1484C79.429 16.8828 79.0931 16.75 78.666 16.75C78.3717 16.75 78.1087 16.8138 77.877 16.9414C77.6478 17.069 77.4668 17.2552 77.334 17.5C77.2012 17.7448 77.1348 18.0417 77.1348 18.3906ZM83.1006 22H82.085L85.0225 14H86.0225L88.96 22H87.9443L85.5537 15.2656H85.4912L83.1006 22ZM83.4756 18.875H87.5693V19.7344H83.4756V18.875ZM92.7529 16V16.7812H89.5186V16H92.7529ZM90.4873 22V15.1719C90.4873 14.8281 90.568 14.5417 90.7295 14.3125C90.891 14.0833 91.1006 13.9115 91.3584 13.7969C91.6162 13.6823 91.8883 13.625 92.1748 13.625C92.4014 13.625 92.5863 13.6432 92.7295 13.6797C92.8727 13.7161 92.9795 13.75 93.0498 13.7812L92.7842 14.5781C92.7373 14.5625 92.6722 14.543 92.5889 14.5195C92.5081 14.4961 92.4014 14.4844 92.2686 14.4844C91.9639 14.4844 91.7438 14.5612 91.6084 14.7148C91.4756 14.8685 91.4092 15.0937 91.4092 15.3906V22H90.4873ZM96.7168 16V16.7812H93.4824V16H96.7168ZM94.4512 22V15.1719C94.4512 14.8281 94.5319 14.5417 94.6934 14.3125C94.8548 14.0833 95.0645 13.9115 95.3223 13.7969C95.5801 13.6823 95.8522 13.625 96.1387 13.625C96.3652 13.625 96.5501 13.6432 96.6934 13.6797C96.8366 13.7161 96.9434 13.75 97.0137 13.7812L96.748 14.5781C96.7012 14.5625 96.6361 14.543 96.5527 14.5195C96.472 14.4961 96.3652 14.4844 96.2324 14.4844C95.9277 14.4844 95.7077 14.5612 95.5723 14.7148C95.4395 14.8685 95.373 15.0937 95.373 15.3906V22H94.4512ZM100.277 22.125C99.6992 22.125 99.2005 21.9974 98.7812 21.7422C98.3646 21.4844 98.043 21.125 97.8164 20.6641C97.5924 20.2005 97.4805 19.6615 97.4805 19.0469C97.4805 18.4323 97.5924 17.8906 97.8164 17.4219C98.043 16.9505 98.3581 16.5833 98.7617 16.3203C99.168 16.0547 99.6419 15.9219 100.184 15.9219C100.496 15.9219 100.805 15.974 101.109 16.0781C101.414 16.1823 101.691 16.3516 101.941 16.5859C102.191 16.8177 102.391 17.125 102.539 17.5078C102.688 17.8906 102.762 18.362 102.762 18.9219V19.3125H98.1367V18.5156H101.824C101.824 18.1771 101.757 17.875 101.621 17.6094C101.488 17.3437 101.298 17.1341 101.051 16.9805C100.806 16.8268 100.517 16.75 100.184 16.75C99.8164 16.75 99.4987 16.8411 99.2305 17.0234C98.9648 17.2031 98.7604 17.4375 98.6172 17.7266C98.474 18.0156 98.4023 18.3255 98.4023 18.6562V19.1875C98.4023 19.6406 98.4805 20.0247 98.6367 20.3398C98.7956 20.6523 99.0156 20.8906 99.2969 21.0547C99.5781 21.2161 99.9049 21.2969 100.277 21.2969C100.52 21.2969 100.738 21.263 100.934 21.1953C101.132 21.125 101.302 21.0208 101.445 20.8828C101.589 20.7422 101.699 20.5677 101.777 20.3594L102.668 20.6094C102.574 20.9115 102.417 21.1771 102.195 21.4062C101.974 21.6328 101.701 21.8099 101.375 21.9375C101.049 22.0625 100.684 22.125 100.277 22.125ZM106.602 22.125C106.039 22.125 105.555 21.9922 105.148 21.7266C104.742 21.4609 104.43 21.0951 104.211 20.6289C103.992 20.1628 103.883 19.6302 103.883 19.0312C103.883 18.4219 103.995 17.8841 104.219 17.418C104.445 16.9492 104.76 16.5833 105.164 16.3203C105.57 16.0547 106.044 15.9219 106.586 15.9219C107.008 15.9219 107.388 16 107.727 16.1562C108.065 16.3125 108.342 16.5312 108.559 16.8125C108.775 17.0937 108.909 17.4219 108.961 17.7969H108.039C107.969 17.5234 107.813 17.2812 107.57 17.0703C107.331 16.8568 107.008 16.75 106.602 16.75C106.242 16.75 105.927 16.8437 105.656 17.0312C105.388 17.2161 105.178 17.4779 105.027 17.8164C104.879 18.1523 104.805 18.5469 104.805 19C104.805 19.4635 104.878 19.8672 105.023 20.2109C105.172 20.5547 105.38 20.8216 105.648 21.0117C105.919 21.2018 106.237 21.2969 106.602 21.2969C106.841 21.2969 107.059 21.2552 107.254 21.1719C107.449 21.0885 107.615 20.9688 107.75 20.8125C107.885 20.6562 107.982 20.4687 108.039 20.25H108.961C108.909 20.6042 108.78 20.9232 108.574 21.207C108.371 21.4883 108.102 21.7122 107.766 21.8789C107.432 22.043 107.044 22.125 106.602 22.125ZM112.918 16V16.7812H109.809V16H112.918ZM110.715 14.5625H111.637V20.2812C111.637 20.5417 111.674 20.737 111.75 20.8672C111.828 20.9948 111.927 21.0807 112.047 21.125C112.169 21.1667 112.298 21.1875 112.434 21.1875C112.535 21.1875 112.618 21.1823 112.684 21.1719C112.749 21.1589 112.801 21.1484 112.84 21.1406L113.027 21.9687C112.965 21.9922 112.878 22.0156 112.766 22.0391C112.654 22.0651 112.512 22.0781 112.34 22.0781C112.079 22.0781 111.824 22.0221 111.574 21.9102C111.327 21.7982 111.121 21.6276 110.957 21.3984C110.796 21.1693 110.715 20.8802 110.715 20.5312V14.5625ZM118.447 17.3437L117.619 17.5781C117.567 17.4401 117.49 17.306 117.389 17.1758C117.29 17.043 117.154 16.9336 116.982 16.8477C116.811 16.7617 116.59 16.7187 116.322 16.7187C115.955 16.7187 115.649 16.8034 115.404 16.9727C115.162 17.1393 115.041 17.3516 115.041 17.6094C115.041 17.8385 115.124 18.0195 115.291 18.1523C115.458 18.2852 115.718 18.3958 116.072 18.4844L116.963 18.7031C117.499 18.8333 117.899 19.0326 118.162 19.3008C118.425 19.5664 118.557 19.9089 118.557 20.3281C118.557 20.6719 118.458 20.9792 118.26 21.25C118.064 21.5208 117.791 21.7344 117.439 21.8906C117.088 22.0469 116.679 22.125 116.213 22.125C115.601 22.125 115.094 21.9922 114.693 21.7266C114.292 21.4609 114.038 21.0729 113.932 20.5625L114.807 20.3437C114.89 20.6667 115.048 20.9089 115.279 21.0703C115.514 21.2318 115.82 21.3125 116.197 21.3125C116.627 21.3125 116.968 21.2214 117.221 21.0391C117.476 20.8542 117.604 20.6328 117.604 20.375C117.604 20.1667 117.531 19.9922 117.385 19.8516C117.239 19.7083 117.015 19.6016 116.713 19.5312L115.713 19.2969C115.163 19.1667 114.76 18.9648 114.502 18.6914C114.247 18.4154 114.119 18.0703 114.119 17.6562C114.119 17.3177 114.214 17.0182 114.404 16.7578C114.597 16.4974 114.859 16.293 115.189 16.1445C115.523 15.9961 115.9 15.9219 116.322 15.9219C116.916 15.9219 117.382 16.0521 117.721 16.3125C118.062 16.5729 118.304 16.9167 118.447 17.3437ZM120.069 22V14H121.038V21.1406H124.757V22H120.069ZM128.569 22.125C128.028 22.125 127.552 21.9961 127.144 21.7383C126.737 21.4805 126.42 21.1198 126.19 20.6562C125.964 20.1927 125.851 19.651 125.851 19.0312C125.851 18.4062 125.964 17.8607 126.19 17.3945C126.42 16.9284 126.737 16.5664 127.144 16.3086C127.552 16.0508 128.028 15.9219 128.569 15.9219C129.111 15.9219 129.585 16.0508 129.991 16.3086C130.4 16.5664 130.718 16.9284 130.944 17.3945C131.174 17.8607 131.288 18.4062 131.288 19.0312C131.288 19.651 131.174 20.1927 130.944 20.6562C130.718 21.1198 130.4 21.4805 129.991 21.7383C129.585 21.9961 129.111 22.125 128.569 22.125ZM128.569 21.2969C128.981 21.2969 129.319 21.1914 129.585 20.9805C129.851 20.7695 130.047 20.4922 130.175 20.1484C130.302 19.8047 130.366 19.4323 130.366 19.0312C130.366 18.6302 130.302 18.2565 130.175 17.9102C130.047 17.5638 129.851 17.2839 129.585 17.0703C129.319 16.8568 128.981 16.75 128.569 16.75C128.158 16.75 127.819 16.8568 127.554 17.0703C127.288 17.2839 127.091 17.5638 126.964 17.9102C126.836 18.2565 126.772 18.6302 126.772 19.0312C126.772 19.4323 126.836 19.8047 126.964 20.1484C127.091 20.4922 127.288 20.7695 127.554 20.9805C127.819 21.1914 128.158 21.2969 128.569 21.2969ZM135.117 24.375C134.672 24.375 134.289 24.3177 133.969 24.2031C133.648 24.0911 133.382 23.9427 133.168 23.7578C132.957 23.5755 132.789 23.3802 132.664 23.1719L133.398 22.6563C133.482 22.7656 133.587 22.8906 133.715 23.0312C133.842 23.1745 134.017 23.2982 134.238 23.4023C134.462 23.5091 134.755 23.5625 135.117 23.5625C135.602 23.5625 136.001 23.4453 136.316 23.2109C136.632 22.9766 136.789 22.6094 136.789 22.1094V20.8906H136.711C136.643 21 136.547 21.1354 136.422 21.2969C136.299 21.4557 136.122 21.5977 135.891 21.7227C135.661 21.8451 135.352 21.9062 134.961 21.9062C134.477 21.9062 134.042 21.7917 133.656 21.5625C133.273 21.3333 132.97 21 132.746 20.5625C132.525 20.125 132.414 19.5937 132.414 18.9687C132.414 18.3542 132.522 17.819 132.738 17.3633C132.954 16.9049 133.255 16.5508 133.641 16.3008C134.026 16.0482 134.471 15.9219 134.977 15.9219C135.367 15.9219 135.677 15.987 135.906 16.1172C136.138 16.2448 136.315 16.3906 136.438 16.5547C136.563 16.7161 136.659 16.849 136.727 16.9531H136.82V16H137.711V22.1719C137.711 22.6875 137.594 23.1068 137.359 23.4297C137.128 23.7552 136.815 23.9935 136.422 24.1445C136.031 24.2982 135.596 24.375 135.117 24.375ZM135.086 21.0781C135.456 21.0781 135.768 20.9935 136.023 20.8242C136.279 20.6549 136.473 20.4115 136.605 20.0938C136.738 19.776 136.805 19.3958 136.805 18.9531C136.805 18.5208 136.74 18.1393 136.609 17.8086C136.479 17.4779 136.286 17.2187 136.031 17.0312C135.776 16.8437 135.461 16.75 135.086 16.75C134.695 16.75 134.37 16.849 134.109 17.0469C133.852 17.2448 133.658 17.5104 133.527 17.8438C133.4 18.1771 133.336 18.5469 133.336 18.9531C133.336 19.3698 133.401 19.7383 133.531 20.0586C133.664 20.3763 133.859 20.6263 134.117 20.8086C134.378 20.9883 134.701 21.0781 135.086 21.0781ZM141.836 22.125C141.294 22.125 140.819 21.9961 140.41 21.7383C140.004 21.4805 139.686 21.1198 139.457 20.6562C139.23 20.1927 139.117 19.651 139.117 19.0312C139.117 18.4062 139.23 17.8607 139.457 17.3945C139.686 16.9284 140.004 16.5664 140.41 16.3086C140.819 16.0508 141.294 15.9219 141.836 15.9219C142.378 15.9219 142.852 16.0508 143.258 16.3086C143.667 16.5664 143.984 16.9284 144.211 17.3945C144.44 17.8607 144.555 18.4062 144.555 19.0312C144.555 19.651 144.44 20.1927 144.211 20.6562C143.984 21.1198 143.667 21.4805 143.258 21.7383C142.852 21.9961 142.378 22.125 141.836 22.125ZM141.836 21.2969C142.247 21.2969 142.586 21.1914 142.852 20.9805C143.117 20.7695 143.314 20.4922 143.441 20.1484C143.569 19.8047 143.633 19.4323 143.633 19.0312C143.633 18.6302 143.569 18.2565 143.441 17.9102C143.314 17.5638 143.117 17.2839 142.852 17.0703C142.586 16.8568 142.247 16.75 141.836 16.75C141.424 16.75 141.086 16.8568 140.82 17.0703C140.555 17.2839 140.358 17.5638 140.23 17.9102C140.103 18.2565 140.039 18.6302 140.039 19.0312C140.039 19.4323 140.103 19.8047 140.23 20.1484C140.358 20.4922 140.555 20.7695 140.82 20.9805C141.086 21.1914 141.424 21.2969 141.836 21.2969Z" fill="white"/>
<defs>
<clipPath id="clip0_0_1">
<rect width="1000" height="1000" fill="white" transform="translate(40 40)"/>
</clipPath>
</defs>
</svg>
